<svg width="445" height="121" viewBox="0 0 445 121" fill="none" xmlns="http://www.w3.org/2000/svg">
<path d="M84.096 38.008C84.096 42.7013 82.9013 47.1813 80.512 51.448C78.208 55.7147 75.0507 59.4693 71.04 62.712C67.1147 65.8693 62.464 68.3867 57.088 70.264C51.7973 72.1413 46.1653 73.08 40.192 73.08C38.0587 73.08 36.352 72.824 35.072 72.312C33.8773 71.7147 32.512 70.6053 30.976 68.984C26.7093 78.2853 23.2107 86.8613 20.48 94.712C17.8347 102.477 15.744 110.029 14.208 117.368C10.9653 116.6 8.32 115.235 6.272 113.272C4.224 111.395 2.34667 109.005 0.640001 106.104C1.49333 104.483 2.51733 102.349 3.712 99.704C4.90667 97.0587 6.35733 93.816 8.064 89.976C9.77067 86.0507 11.7333 81.4 13.952 76.024C16.256 70.5627 18.944 64.2053 22.016 56.952C23.3813 53.624 24.576 50.7227 25.6 48.248C26.624 45.7733 27.52 43.4693 28.288 41.336C29.056 39.1173 29.7387 36.9413 30.336 34.808C31.0187 32.6747 31.7013 30.328 32.384 27.768C28.3733 29.048 24.6613 30.5413 21.248 32.248C17.92 33.9547 15.1467 35.7467 12.928 37.624C12.16 37.112 11.3493 36.344 10.496 35.32C9.728 34.296 9.00267 33.1867 8.32 31.992C7.63733 30.712 7.04 29.432 6.528 28.152C6.016 26.872 5.71733 25.72 5.632 24.696C8.10667 22.9893 11.1787 21.4107 14.848 19.96C18.5173 18.5093 22.4427 17.272 26.624 16.248C30.8053 15.1387 35.1147 14.2853 39.552 13.688C44.0747 13.0907 48.384 12.792 52.48 12.792C57.344 12.792 61.7387 13.432 65.664 14.712C69.5893 15.9067 72.9173 17.6133 75.648 19.832C78.3787 22.0507 80.4693 24.696 81.92 27.768C83.3707 30.84 84.096 34.2533 84.096 38.008ZM61.312 22.648C58.0693 22.648 54.7413 22.904 51.328 23.416L52.864 25.72C52.0107 26.8293 50.944 28.4933 49.664 30.712C48.384 32.9307 46.976 35.6187 45.44 38.776C43.904 41.848 42.1973 45.304 40.32 49.144C38.528 52.984 36.608 57.0373 34.56 61.304C41.216 61.304 47.2747 60.7067 52.736 59.512C58.1973 58.232 62.848 56.5253 66.688 54.392C70.6133 52.1733 73.6427 49.6133 75.776 46.712C77.9947 43.8107 79.104 40.696 79.104 37.368C79.104 32.9307 77.6107 29.3893 74.624 26.744C71.6373 24.0133 67.2 22.648 61.312 22.648ZM78.413 104.824C78.413 101.837 78.7117 98.3387 79.309 94.328C79.9063 90.232 80.7597 85.88 81.869 81.272C83.0637 76.664 84.429 71.8427 85.965 66.808C87.5863 61.7733 89.3783 56.7387 91.341 51.704C93.0477 47.1813 95.0103 42.616 97.229 38.008C99.533 33.4 102.008 28.8773 104.653 24.44C107.298 20.0027 110.029 15.7787 112.845 11.768C115.746 7.75733 118.648 4.088 121.549 0.759995C122.914 0.759995 124.365 0.930662 125.901 1.272C127.522 1.61333 129.058 2.08266 130.509 2.67999C132.045 3.192 133.41 3.832 134.605 4.6C135.885 5.368 136.909 6.136 137.677 6.90399C131.277 13.4747 125.517 20.1307 120.397 26.872C115.277 33.528 111.224 39.8 108.237 45.688C106.616 48.9307 105.122 51.96 103.757 54.776C102.477 57.592 101.282 60.408 100.173 63.224C99.0637 65.9547 98.0397 68.728 97.101 71.544C96.2477 74.2747 95.437 77.176 94.669 80.248C111.053 59.3413 123.213 48.888 131.149 48.888C133.368 48.888 135.757 49.6133 138.317 51.064C140.877 52.5147 143.138 54.4773 145.101 56.952C142.456 59.8533 139.725 63.352 136.909 67.448C134.093 71.544 131.49 75.6827 129.101 79.864C126.797 83.96 124.877 87.8 123.341 91.384C121.89 94.8827 121.165 97.4853 121.165 99.192C121.165 100.045 121.293 100.643 121.549 100.984C121.805 101.24 122.36 101.368 123.213 101.368C124.493 101.368 125.517 101.197 126.285 100.856C127.053 100.515 127.522 100.344 127.693 100.344C128.12 101.027 128.376 101.496 128.461 101.752C128.546 102.008 128.589 102.221 128.589 102.392C128.589 102.733 128.077 103.245 127.053 103.928C126.029 104.525 124.792 105.165 123.341 105.848C121.976 106.445 120.61 107 119.245 107.512C117.88 108.024 116.856 108.28 116.173 108.28C115.32 108.28 114.466 108.024 113.613 107.512C112.76 107.085 111.992 106.488 111.309 105.72C110.712 104.952 110.2 104.099 109.773 103.16C109.432 102.221 109.261 101.24 109.261 100.216C109.261 98.936 109.602 97.0587 110.285 94.584C111.053 92.024 112.077 89.08 113.357 85.752C114.637 82.3387 116.173 78.6267 117.965 74.616C119.757 70.6053 121.677 66.5093 123.725 62.328C123.725 61.9867 123.554 61.816 123.213 61.816C122.957 61.816 122.274 62.1573 121.165 62.84C120.141 63.5227 119.16 64.2053 118.221 64.888C115.149 67.192 112.034 70.0507 108.877 73.464C105.805 76.792 102.776 80.4613 99.789 84.472C96.8877 88.4827 94.1143 92.7493 91.469 97.272C88.909 101.709 86.6903 106.189 84.813 110.712C84.557 111.309 84.173 111.864 83.661 112.376C83.149 112.888 82.7223 113.144 82.381 113.144C82.125 113.144 81.741 112.845 81.229 112.248C80.8023 111.651 80.3757 110.883 79.949 109.944C79.6077 109.091 79.2663 108.195 78.925 107.256C78.5837 106.317 78.413 105.507 78.413 104.824ZM159.77 111.48C154.906 110.968 151.023 108.835 148.122 105.08C145.221 101.325 143.77 96.5467 143.77 90.744C143.77 87.3307 144.282 83.7893 145.306 80.12C146.33 76.4507 147.781 72.9093 149.658 69.496C151.535 65.9973 153.754 62.712 156.314 59.64C158.874 56.568 161.647 53.9227 164.634 51.704C169.327 48.2053 173.722 46.456 177.818 46.456C180.549 47.9067 183.237 50.936 185.882 55.544C186.309 55.544 186.693 55.544 187.034 55.544C187.375 55.4587 187.759 55.416 188.186 55.416C192.709 55.416 194.97 59.4267 194.97 67.448C194.97 72.824 194.074 77.944 192.282 82.808C190.575 87.5867 188.143 91.9387 184.986 95.864C181.914 99.7893 178.202 103.117 173.85 105.848C169.583 108.493 164.89 110.371 159.77 111.48ZM166.298 71.16C164.847 73.1227 163.482 75.256 162.202 77.56C160.922 79.864 159.813 82.2107 158.874 84.6C157.935 86.904 157.21 89.1653 156.698 91.384C156.186 93.5173 155.93 95.4373 155.93 97.144C155.93 99.192 156.271 101.155 156.954 103.032C157.637 104.909 158.405 105.976 159.258 106.232C163.098 105.379 166.597 103.8 169.754 101.496C172.997 99.1067 175.77 96.1627 178.074 92.664C180.463 89.1653 182.298 85.1973 183.578 80.76C184.943 76.3227 185.626 71.5867 185.626 66.552C185.626 64.3333 185.498 62.584 185.242 61.304C184.986 60.024 184.559 58.9147 183.962 57.976C180.207 59.0853 176.837 60.8773 173.85 63.352C170.949 65.8267 168.431 68.4293 166.298 71.16ZM252.968 57.976C252.541 57.464 252.157 56.3973 251.816 54.776C251.475 53.0693 251.304 51.6187 251.304 50.424C253.523 50.5947 255.656 50.7653 257.704 50.936C259.752 51.0213 261.629 51.1067 263.336 51.192C264.616 48.632 265.981 46.1147 267.432 43.64C268.968 41.08 270.419 38.776 271.784 36.728C273.235 34.5947 274.557 32.8027 275.752 31.352C277.032 29.9013 278.013 28.9627 278.696 28.536C279.549 28.536 280.616 28.7067 281.896 29.048C283.261 29.304 284.627 29.688 285.992 30.2C287.357 30.6267 288.595 31.096 289.704 31.608C290.813 32.12 291.581 32.632 292.008 33.144C289.448 36.3867 287.229 39.416 285.352 42.232C283.56 44.9627 281.597 48.12 279.464 51.704C281.171 51.704 282.877 51.6613 284.584 51.576C286.376 51.4907 288.168 51.3627 289.96 51.192C290.387 51.6187 290.728 52.1733 290.984 52.856C291.24 53.4533 291.368 54.0933 291.368 54.776C287.187 56.312 282.109 57.1653 276.136 57.336C274.003 61.432 272.083 65.528 270.376 69.624C268.755 73.6347 267.347 77.5173 266.152 81.272C265.043 85.0267 264.147 88.568 263.464 91.896C262.867 95.224 262.568 98.2107 262.568 100.856C262.568 104.611 263.976 106.701 266.792 107.128C269.352 106.787 271.784 106.147 274.088 105.208C276.392 104.269 278.44 103.075 280.232 101.624C280.744 102.392 281.043 103.032 281.128 103.544C280.616 104.312 279.72 105.208 278.44 106.232C277.245 107.256 275.923 108.237 274.472 109.176C273.021 110.2 271.613 111.053 270.248 111.736C268.883 112.419 267.859 112.803 267.176 112.888C265.043 112.803 262.909 112.333 260.776 111.48C258.643 110.627 256.68 109.56 254.888 108.28C253.181 107 251.773 105.592 250.664 104.056C249.555 102.435 249 100.856 249 99.32C249 97.272 249.256 94.712 249.768 91.64C250.365 88.4827 251.176 85.0693 252.2 81.4C253.224 77.7307 254.419 73.8907 255.784 69.88C257.149 65.8693 258.643 61.9013 260.264 57.976H252.968ZM305.52 111.48C300.656 110.968 296.773 108.835 293.872 105.08C290.971 101.325 289.52 96.5467 289.52 90.744C289.52 87.3307 290.032 83.7893 291.056 80.12C292.08 76.4507 293.531 72.9093 295.408 69.496C297.285 65.9973 299.504 62.712 302.064 59.64C304.624 56.568 307.397 53.9227 310.384 51.704C315.077 48.2053 319.472 46.456 323.568 46.456C326.299 47.9067 328.987 50.936 331.632 55.544C332.059 55.544 332.443 55.544 332.784 55.544C333.125 55.4587 333.509 55.416 333.936 55.416C338.459 55.416 340.72 59.4267 340.72 67.448C340.72 72.824 339.824 77.944 338.032 82.808C336.325 87.5867 333.893 91.9387 330.736 95.864C327.664 99.7893 323.952 103.117 319.6 105.848C315.333 108.493 310.64 110.371 305.52 111.48ZM312.048 71.16C310.597 73.1227 309.232 75.256 307.952 77.56C306.672 79.864 305.563 82.2107 304.624 84.6C303.685 86.904 302.96 89.1653 302.448 91.384C301.936 93.5173 301.68 95.4373 301.68 97.144C301.68 99.192 302.021 101.155 302.704 103.032C303.387 104.909 304.155 105.976 305.008 106.232C308.848 105.379 312.347 103.8 315.504 101.496C318.747 99.1067 321.52 96.1627 323.824 92.664C326.213 89.1653 328.048 85.1973 329.328 80.76C330.693 76.3227 331.376 71.5867 331.376 66.552C331.376 64.3333 331.248 62.584 330.992 61.304C330.736 60.024 330.309 58.9147 329.712 57.976C325.957 59.0853 322.587 60.8773 319.6 63.352C316.699 65.8267 314.181 68.4293 312.048 71.16Z" fill="#EA4D89"/>
<path d="M245.326 56.056C245.241 57.6773 244.942 59.384 244.43 61.176C244.003 62.8827 243.449 64.4613 242.766 65.912C242.083 67.2773 241.358 68.4293 240.59 69.368C239.822 70.3067 239.097 70.776 238.414 70.776C237.475 70.6907 236.921 70.0507 236.75 68.856C236.75 68.6 236.835 68.216 237.006 67.704C237.262 67.1067 237.518 66.4667 237.774 65.784C238.03 65.1013 238.243 64.4187 238.414 63.736C238.67 63.0533 238.798 62.456 238.798 61.944C238.798 60.7493 238.499 59.768 237.902 59C237.39 58.1467 236.665 57.72 235.726 57.72C232.313 57.72 229.71 59.8533 227.918 64.12C226.126 68.3867 225.23 74.6587 225.23 82.936C225.23 83.7893 225.273 84.3013 225.358 84.472C227.15 84.3867 228.729 84.344 230.094 84.344C231.545 84.2587 232.953 84.216 234.318 84.216C234.403 84.3867 234.446 84.728 234.446 85.24C234.446 86.008 234.275 86.5627 233.934 86.904C231.971 87.3307 230.393 87.7147 229.198 88.056C228.089 88.312 227.235 88.568 226.638 88.824C226.041 89.08 225.657 89.3787 225.486 89.72C225.401 89.976 225.358 90.36 225.358 90.872C225.358 91.5547 225.358 92.2373 225.358 92.92C225.443 93.6027 225.486 94.456 225.486 95.48C225.486 102.648 223.523 108.408 219.598 112.76C215.758 117.112 210.382 119.629 203.47 120.312C202.275 120.227 201.038 119.885 199.758 119.288C198.478 118.691 197.241 117.923 196.046 116.984C194.937 116.045 193.955 114.979 193.102 113.784C192.249 112.675 191.651 111.523 191.31 110.328C191.31 107.085 191.993 104.013 193.358 101.112C194.723 98.1253 196.558 95.5227 198.862 93.304C201.251 91 204.025 89.1653 207.182 87.8C210.425 86.3493 213.923 85.496 217.678 85.24C217.678 83.1067 217.465 81.016 217.038 78.968C216.611 76.92 216.142 74.9573 215.63 73.08C215.203 71.1173 214.777 69.24 214.35 67.448C213.923 65.5707 213.71 63.736 213.71 61.944C213.71 59.64 214.179 57.3787 215.118 55.16C216.057 52.856 217.294 50.7653 218.83 48.888C220.366 46.9253 222.158 45.2613 224.206 43.896C226.254 42.5307 228.387 41.592 230.606 41.08C231.545 41.336 232.782 42.104 234.318 43.384C235.939 44.5787 237.518 45.944 239.054 47.48C240.59 49.016 241.955 50.5947 243.15 52.216C244.345 53.752 245.07 55.032 245.326 56.056ZM203.086 114.424C205.134 113.571 207.054 112.333 208.846 110.712C210.723 109.091 212.345 107.256 213.71 105.208C215.075 103.16 216.142 100.984 216.91 98.68C217.763 96.376 218.19 94.1147 218.19 91.896C216.483 92.152 214.606 92.9627 212.558 94.328C210.51 95.608 208.59 97.1867 206.798 99.064C205.006 100.856 203.513 102.733 202.318 104.696C201.123 106.659 200.526 108.365 200.526 109.816C200.526 111.693 201.379 113.229 203.086 114.424ZM343.844 104.44C344.271 101.965 344.996 98.7227 346.02 94.712C347.129 90.616 348.409 86.3067 349.86 81.784C351.311 77.176 352.847 72.568 354.468 67.96C356.089 63.352 357.668 59.2133 359.204 55.544C360.313 52.8987 361.295 50.8507 362.148 49.4C363.001 47.864 363.94 46.584 364.964 45.56C366.159 45.7307 367.396 46.0293 368.676 46.456C369.956 46.8827 371.193 47.3947 372.388 47.992C373.583 48.5893 374.649 49.2293 375.588 49.912C376.527 50.5093 377.252 51.1067 377.764 51.704C375.46 54.4347 373.412 57.5493 371.62 61.048C369.913 64.5467 368.164 69.0267 366.372 74.488C370.98 70.392 375.033 66.4667 378.532 62.712C382.116 58.9573 385.444 54.776 388.516 50.168C389.028 49.7413 389.924 49.528 391.204 49.528C392.399 49.528 393.551 49.7413 394.66 50.168C395.769 50.5093 396.537 51.0213 396.964 51.704C395.428 55.8 394.66 59.8533 394.66 63.864C394.66 67.6187 395.215 70.4347 396.324 72.312C396.239 72.824 395.641 73.8053 394.532 75.256C393.508 76.7067 392.356 78.072 391.076 79.352C388.772 78.1573 386.724 76.536 384.932 74.488C383.14 72.3547 381.817 70.0507 380.964 67.576C376.953 70.392 373.54 73.1653 370.724 75.896C367.908 78.5413 365.476 81.528 363.428 84.856C361.465 88.0987 359.759 91.8533 358.308 96.12C356.943 100.387 355.62 105.464 354.34 111.352C353.572 111.267 352.633 110.968 351.524 110.456C350.5 110.029 349.433 109.475 348.324 108.792C347.3 108.109 346.361 107.384 345.508 106.616C344.655 105.848 344.1 105.123 343.844 104.44ZM444.365 54.008C444.024 59.2987 443.085 63.864 441.549 67.704C440.013 71.4587 437.794 74.7867 434.893 77.688C432.077 80.504 428.621 83.064 424.525 85.368C420.429 87.672 415.65 89.8907 410.189 92.024C410.189 92.536 410.146 93.0907 410.061 93.688C410.061 94.2 410.061 94.7547 410.061 95.352C410.061 96.4613 410.146 97.6133 410.317 98.808C410.488 100.003 410.786 101.112 411.213 102.136C411.64 103.16 412.237 104.013 413.005 104.696C413.773 105.293 414.754 105.592 415.949 105.592C418.253 105.592 420.514 105.08 422.733 104.056C424.952 103.032 427.042 101.795 429.005 100.344C431.053 98.808 432.93 97.1867 434.637 95.48C436.429 93.688 438.008 92.0667 439.373 90.616C440.226 91.384 440.952 92.1093 441.549 92.792C437.709 97.912 433.485 102.179 428.877 105.592C424.354 108.92 420.045 111.053 415.949 111.992C410.061 111.309 405.453 109.176 402.125 105.592C398.882 101.923 397.261 97.528 397.261 92.408C397.261 88.9093 397.73 85.368 398.669 81.784C399.693 78.1147 401.058 74.616 402.765 71.288C404.557 67.8747 406.605 64.6747 408.909 61.688C411.298 58.7013 413.816 56.0987 416.461 53.88C419.192 51.6613 421.965 49.912 424.781 48.632C427.682 47.352 430.541 46.712 433.357 46.712C437.282 47.224 440.952 49.656 444.365 54.008ZM435.533 58.232C433.229 58.5733 430.84 59.512 428.365 61.048C425.89 62.584 423.544 64.632 421.325 67.192C419.192 69.752 417.229 72.7387 415.437 76.152C413.645 79.5653 412.237 83.2347 411.213 87.16C418.04 83.7467 423.714 79.5653 428.237 74.616C432.76 69.5813 435.192 64.12 435.533 58.232Z" fill="#8E8E8E"/>
</svg>
